<svg xmlns="http://www.w3.org/2000/svg" version="1.1" xmlns:xlink="http://www.w3.org/1999/xlink" xmlns:svgjs="http://svgjs.com/svgjs" width="1440" height="560" preserveAspectRatio="none" viewBox="0 0 1440 560">
    <g mask="url(&quot;#SvgjsMask1006&quot;)" fill="none">
        <rect width="1440" height="560" x="0" y="0" fill="rgba(21, 67, 96, 1)"></rect>
        <path d="M0,448.463C84.175,435.846,172.327,424.229,237.303,369.25C298.982,317.061,318.128,233.668,344.221,157.201C367.896,87.819,372.781,17.792,382.047,-54.93C394.995,-156.555,468.321,-270.948,409.456,-354.795C352.115,-436.471,222.738,-407.687,124.039,-422.437C39.208,-435.115,-44.097,-454.03,-127.75,-435.078C-215.096,-415.289,-295.077,-373.483,-360.763,-312.603C-431.858,-246.71,-514.356,-171.23,-516.974,-74.33C-519.582,22.19,-412.605,82.295,-373.822,170.719C-334.156,261.157,-367.162,389.074,-287.893,447.97C-209.271,506.385,-96.866,462.982,0,448.463" fill="#11364d"></path>
        <path d="M1440 1072.836C1534.785 1073.3690000000001 1613.223 1004.143 1688 945.895 1757.192 891.9970000000001 1815.863 828.0129999999999 1855.038 749.5409999999999 1895.249 668.992 1918.128 581.709 1914.718 491.746 1911.041 394.746 1895.339 293.777 1834.883 217.832 1773.392 140.587 1674.371 110.79899999999998 1582.56 74.48599999999999 1481.98 34.70399999999995 1376.375-40.014999999999986 1274.443-3.8350000000000364 1172.308 32.41700000000003 1147.222 163.488 1083.936 251.469 1027.4279999999999 330.028 939.03 390.249 922.4 485.58 905.617 581.788 944.8109999999999 679.396 994.633 763.392 1041.194 841.89 1118.834 891.039 1193.786 943.116 1271.5430000000001 997.142 1345.318 1072.304 1440 1072.836" fill="#195073"></path>
    </g>
    <defs>
        <mask id="SvgjsMask1006">
            <rect width="1440" height="560" fill="#ffffff"></rect>
        </mask>
    </defs>
</svg>